<svg width="132" height="141" viewBox="0 0 132 141" fill="none" xmlns="http://www.w3.org/2000/svg">
<path fill-rule="evenodd" clip-rule="evenodd" d="M42.9031 73.0573L33.6941 67.5713C36.4419 69.9384 39.533 71.7415 42.9031 73.0573ZM59.1417 90.0157C55.8694 87.5192 52.5429 85.1585 49.5854 82.3308C52.024 85.8389 55.5195 88.039 59.1417 90.0157ZM62.3585 74.4804C63.5945 73.4891 62.7908 72.8263 62.0895 72.1885C59.7194 70.0303 56.7949 70.3273 54.0016 70.6381C51.9657 70.8644 49.8779 71.3562 48.1899 72.7139C47.5461 73.2313 47.1794 73.8184 48.3142 74.268C51.4129 75.4951 54.5918 76.2744 57.9516 75.9577C59.5524 75.8068 61.077 75.3613 62.3585 74.4804ZM51.0425 81.1515C52.5853 83.2244 54.7092 84.6829 56.7662 86.191C65.6547 92.7069 75.7643 96.0338 86.5484 97.7131C93.7523 98.8345 100.992 99.2581 108.262 99.4269C108.925 99.4429 109.596 99.4325 110.189 99.7906C110.855 100.193 111.139 100.631 110.164 100.987C109.925 101.075 109.538 100.96 109.721 101.402C110.35 102.927 109.191 103.328 108.207 103.777C106.36 104.62 104.332 104.59 102.375 104.747C96.8946 105.187 91.392 105.42 85.9064 104.929C80.8138 104.472 75.8445 103.284 70.9113 101.956C67.7711 101.111 64.5887 100.208 61.9474 98.3436C60.1927 97.1048 58.1517 96.6184 56.4216 95.4247C53.105 93.1362 49.8259 90.8215 47.0766 87.8395C44.8139 85.385 43.3209 82.5352 42.7561 79.2429C42.5703 78.1574 42.0281 77.4395 41.1026 76.9449C38.6086 75.6113 36.1499 74.1934 33.7304 72.7544C29.7933 70.4139 26.2458 67.4595 22.8352 64.3875C17.3953 59.4879 12.52 54.1094 9.0211 47.6073C6.96466 43.7857 5.18553 39.8843 5.64218 35.3651C5.76234 34.1753 6.08873 33.0972 7.08798 32.3246C7.51825 31.9912 7.94525 31.8619 8.45972 32.128C9.06739 32.4431 8.75814 32.7697 8.6279 33.2532C7.73361 36.5694 9.46807 39.2501 10.9062 41.9703C14.8693 49.467 20.7301 55.345 27.0861 60.7888C31.95 64.9544 37.1736 68.6056 42.8185 71.6411C43.2667 71.8823 43.6674 72.3941 44.1043 71.5255C45.6264 68.4992 48.2121 66.6534 51.2996 65.5499C56.0651 63.8462 60.8225 63.5493 65.2295 66.5774C67.5978 68.2044 68.0768 70.1964 67.2916 72.9434C65.2927 79.942 58.8711 82.2995 52.8952 81.1249C52.3602 81.0191 51.8255 80.9137 51.2917 80.8084C51.2082 80.9228 51.1255 81.0374 51.0425 81.1515Z" fill="#E6512F"/>
<path fill-rule="evenodd" clip-rule="evenodd" d="M116.782 95.8723C119.623 97.7191 122.65 99.1425 125.947 99.9434C122.892 98.5864 119.837 97.2298 116.782 95.8723ZM110.552 109.668C113.249 107.543 116.261 105.916 119.202 104.175C119.641 103.915 120.295 103.843 120.231 103.073C120.171 102.334 119.538 102.246 119.066 102.101C116.496 101.305 114.303 99.8001 111.962 98.5549C110.483 97.7689 108.844 97.2561 107.349 96.4021C105.048 95.0866 102.645 93.942 100.256 92.7872C99.0452 92.2017 98.1611 91.0748 96.6591 90.9358C95.1857 90.7991 94.711 89.7259 95.2447 87.6229C95.5167 86.5495 96.2644 85.5854 97.6272 85.9068C98.748 86.1713 99.8676 86.5271 100.914 87.0044C107.835 90.1641 114.731 93.3796 121.648 96.5472C123.201 97.2583 124.803 97.8656 126.39 98.5015C129.275 99.6575 129.701 100.803 128.497 103.683C127.564 105.919 125.989 107.335 123.744 108.199C119.422 109.865 115.147 111.653 111.198 114.114C110.407 114.607 109.686 115.211 108.913 115.736C108.018 116.344 107.485 116.129 107.386 115.012C107.164 112.537 107.419 112.103 110.552 109.668Z" fill="#E6512F"/>
</svg>
